<svg width="16" height="16" viewBox="0 0 16 16" fill="none" xmlns="http://www.w3.org/2000/svg">
<path fill-rule="evenodd" clip-rule="evenodd" d="M14.6666 8.00016C14.6666 11.6821 11.6819 14.6668 7.99998 14.6668C4.31808 14.6668 1.33331 11.6821 1.33331 8.00016C1.33331 4.31826 4.31808 1.3335 7.99998 1.3335C11.6819 1.3335 14.6666 4.31826 14.6666 8.00016ZM13.3333 8.00016C13.3333 10.9457 10.9455 13.3335 7.99998 13.3335C5.05446 13.3335 2.66665 10.9457 2.66665 8.00016C2.66665 5.05464 5.05446 2.66683 7.99998 2.66683C10.9455 2.66683 13.3333 5.05464 13.3333 8.00016Z" fill="#001431"/>
<path d="M10.3679 6.11435C10.6282 5.854 11.0503 5.854 11.3107 6.11435C11.571 6.3747 11.571 6.79681 11.3107 7.05716L8.01087 10.357C7.75052 10.6173 7.32841 10.6173 7.06806 10.357L5.18244 8.47137C4.92209 8.21102 4.92209 7.78891 5.18244 7.52856C5.44279 7.26821 5.8649 7.26821 6.12525 7.52856L7.53946 8.94277L10.3679 6.11435Z" fill="#001431"/>
</svg>
