<svg width="20" height="20" viewBox="0 0 20 20" fill="none" xmlns="http://www.w3.org/2000/svg">
<path d="M10.5871 0C9.29436 0 8.20406 1.0902 8.20406 2.38282C8.20406 3.67544 9.29436 4.76564 10.5871 4.76564C11.8798 4.76564 12.9311 3.67544 12.9311 2.38282C12.9311 1.0902 11.8798 0 10.5871 0Z" fill="#CCD0E3"/>
<path d="M13.1886 4.76564C12.5446 5.47967 11.6222 5.93752 10.5871 5.93752C9.552 5.93752 8.59054 5.47967 7.94654 4.76564C7.3843 5.38904 7.03208 6.20573 7.03208 7.1094V7.69534C7.03208 8.01921 7.29417 8.28128 7.61807 8.28128H13.5171C13.8409 8.28128 14.103 8.01921 14.103 7.69534V7.1094C14.103 6.20573 13.7508 5.38904 13.1886 4.76564Z" fill="#CCD0E3"/>
<path d="M5.66152 17.9845L2.67527 11.9979C2.38692 11.4198 1.68514 11.1841 1.1063 11.4708L0.325795 11.8574C0.0351824 12.0015 -0.0830707 12.3547 0.0619817 12.6448L3.57793 19.6761C3.72251 19.966 4.07423 20.0814 4.3625 19.9393L5.13296 19.5576C5.71407 19.2698 5.95092 18.5647 5.66152 17.9845Z" fill="#CCD0E3"/>
<path d="M19.5216 9.67583C19.041 9.32426 18.373 9.39458 17.9745 9.82817L14.7711 13.7657C14.5484 14.0001 14.1265 14.1407 13.9038 14.1407H11.1731C10.8449 14.1407 10.5871 13.8829 10.5871 13.5548C10.5871 13.2266 10.8449 12.9688 11.1731 12.9688C11.9579 12.9688 12.8268 12.9688 13.5171 12.9688C14.1616 12.9688 14.689 12.4415 14.689 11.7969C14.689 11.1524 14.1616 10.6251 13.5171 10.6251C10.765 10.6251 13.3901 10.6251 10.4465 10.6251C10.1544 10.6251 10.0088 10.4399 9.77843 10.2383C8.87174 9.42247 7.51459 9.02942 6.14063 9.34786C5.37775 9.52466 4.86328 9.83282 4.34152 10.246L4.32413 10.2319L3.47655 10.9778L6.80749 17.6563H13.5171C14.6187 17.6563 15.6735 17.129 16.3299 16.2501L19.7676 11.3282C20.1544 10.8125 20.0489 10.0626 19.5216 9.67583Z" fill="#CCD0E3"/>
</svg>
