<svg width="18" height="18" viewBox="0 0 18 18" fill="none" xmlns="http://www.w3.org/2000/svg">
<path d="M10.6874 0H2.06248C0.922491 0 0 0.922494 0 2.06249V13.6874C0 14.8274 0.922491 15.7499 2.06248 15.7499H7.59742L7.76242 14.8274C7.83742 14.4074 8.03242 14.0324 8.33242 13.7249L12.7499 9.31494V2.06249C12.7499 0.922494 11.8274 0 10.6874 0ZM2.99997 2.99998H5.99994C6.41244 2.99998 6.74993 3.33748 6.74993 3.74997C6.74993 4.16247 6.41244 4.49997 5.99994 4.49997H2.99997C2.58747 4.49997 2.24998 4.16247 2.24998 3.74997C2.24998 3.33748 2.58747 2.99998 2.99997 2.99998ZM6.74993 10.4999H2.99997C2.58747 10.4999 2.24998 10.1624 2.24998 9.74994C2.24998 9.33744 2.58747 8.99994 2.99997 8.99994H6.74993C7.16243 8.99994 7.49993 9.33744 7.49993 9.74994C7.49993 10.1624 7.16243 10.4999 6.74993 10.4999ZM9.7499 7.49995H2.99997C2.58747 7.49995 2.24998 7.16245 2.24998 6.74996C2.24998 6.33746 2.58747 5.99996 2.99997 5.99996H9.7499C10.1624 5.99996 10.4999 6.33746 10.4999 6.74996C10.4999 7.16245 10.1624 7.49995 9.7499 7.49995Z" fill="#CCD0E3"/>
<path d="M9.39592 18C9.24817 18 9.10417 17.9415 8.99842 17.835C8.86867 17.7053 8.81017 17.5208 8.84242 17.3393L9.23992 15.0855C9.25942 14.9723 9.31492 14.8673 9.39592 14.7855L14.9646 9.21756C15.6486 8.53206 16.3206 8.71731 16.6881 9.08481L17.6158 10.0126C18.1281 10.524 18.1281 11.3565 17.6158 11.8688L12.0471 17.4375C11.9661 17.5193 11.8611 17.574 11.7471 17.5935L9.49342 17.991C9.46117 17.997 9.42817 18 9.39592 18Z" fill="#CCD0E3"/>
</svg>
