<svg width="18" height="18" viewBox="0 0 18 18" fill="none" xmlns="http://www.w3.org/2000/svg">
<path fill-rule="evenodd" clip-rule="evenodd" d="M2 0C0.895431 0 0 0.89543 0 2V16C0 17.1046 0.89543 18 2 18H16C17.1046 18 18 17.1046 18 16V2C18 0.895431 17.1046 0 16 0H2ZM14 3C13.4477 3 13 3.44771 13 4V14C13 14.5523 13.4477 15 14 15C14.5523 15 15 14.5523 15 14V4C15 3.44772 14.5523 3 14 3ZM9 7C8.44772 7 8 7.44772 8 8V14C8 14.5523 8.44772 15 9 15C9.55228 15 10 14.5523 10 14V8C10 7.44772 9.55228 7 9 7ZM3 12C3 11.4477 3.44772 11 4 11C4.55228 11 5 11.4477 5 12V14C5 14.5523 4.55228 15 4 15C3.44772 15 3 14.5523 3 14V12Z" fill="#546AE4"/>
</svg>
