<svg width="24" height="24" viewBox="0 0 24 24" fill="none" xmlns="http://www.w3.org/2000/svg">
<path d="M10.0001 12C10.0001 10.8954 10.8956 10 12.0001 10C13.1047 10 14.0001 10.8954 14.0001 12C14.0001 13.1046 13.1047 14 12.0001 14C10.8956 14 10.0001 13.1046 10.0001 12Z" fill="#001431"/>
<path d="M4.00012 12C4.00012 10.8954 4.89555 10 6.00012 10C7.10469 10 8.00012 10.8954 8.00012 12C8.00012 13.1046 7.10469 14 6.00012 14C4.89555 14 4.00012 13.1046 4.00012 12Z" fill="#001431"/>
<path d="M16 12C16 10.8954 16.8954 10 18 10C19.1046 10 20 10.8954 20 12C20 13.1046 19.1046 14 18 14C16.8954 14 16 13.1046 16 12Z" fill="#001431"/>
</svg>
