<svg width="20" height="20" viewBox="0 0 20 20" fill="none" xmlns="http://www.w3.org/2000/svg">
<path fill-rule="evenodd" clip-rule="evenodd" d="M10 20C15.5228 20 20 15.5228 20 10C20 4.47715 15.5228 0 10 0C4.47715 0 0 4.47715 0 10C0 15.5228 4.47715 20 10 20ZM5.01172 6.88281C5.07022 6.38631 5.488 6 6 6H14C14.512 6 14.9298 6.38631 14.9883 6.88281L10 10L5.01172 6.88281ZM5 13V7.87598L9.73535 10.835C9.89735 10.936 10.1026 10.936 10.2646 10.835L15 7.87598V13C15 13.5525 14.5525 14 14 14H6C5.4475 14 5 13.5525 5 13Z" fill="#CCD0E3"/>
</svg>
