<svg width="20" height="20" viewBox="0 0 20 20" fill="none" xmlns="http://www.w3.org/2000/svg">
<path fill-rule="evenodd" clip-rule="evenodd" d="M10 20C15.5228 20 20 15.5228 20 10C20 4.47715 15.5228 0 10 0C4.47715 0 0 4.47715 0 10C0 15.5228 4.47715 20 10 20ZM8.9136 11.2756C8.83029 11.836 9.30556 12.2984 9.87211 12.2984H10.3423C10.6194 12.2984 10.8488 12.083 10.8663 11.8065C10.9232 11.2796 11.1485 10.8199 11.5422 10.4274L12.1715 9.80645C12.6635 9.31183 13.008 8.8629 13.2048 8.45968C13.4016 8.05107 13.5 7.61828 13.5 7.16129C13.5 6.15591 13.197 5.37903 12.591 4.83065C11.985 4.27688 11.133 4 10.035 4C8.94728 4 8.0875 4.29032 7.4556 4.87097C7.08087 5.21816 6.81632 5.64512 6.66195 6.15186C6.47809 6.75539 7.02141 7.28226 7.65233 7.28226C8.18642 7.28226 8.58455 6.84723 8.95606 6.44128C9.00794 6.3846 9.0593 6.32848 9.11043 6.27419C9.34351 6.02688 9.65168 5.90323 10.035 5.90323C10.843 5.90323 11.2469 6.35753 11.2469 7.26613C11.2469 7.5672 11.1693 7.85484 11.0139 8.12903C10.8585 8.39785 10.5451 8.75 10.0738 9.18548C9.60766 9.61559 9.28653 10.0538 9.11043 10.5C9.02323 10.721 8.95762 10.9795 8.9136 11.2756ZM8.97059 13.8871C8.73751 14.1183 8.62098 14.414 8.62098 14.7742C8.62098 15.129 8.73492 15.422 8.96282 15.6532C9.19589 15.8844 9.50148 16 9.87958 16C10.2577 16 10.5607 15.8844 10.7886 15.6532C11.0216 15.422 11.1382 15.129 11.1382 14.7742C11.1382 14.414 11.0191 14.1183 10.7808 13.8871C10.5477 13.6505 10.2473 13.5323 9.87958 13.5323C9.51184 13.5323 9.20884 13.6505 8.97059 13.8871Z" fill="#CCD0E3"/>
</svg>
