<svg width="16" height="18" viewBox="0 0 16 18" fill="none" xmlns="http://www.w3.org/2000/svg">
<path d="M14.2222 1.8H10.5031C10.136 0.7533 9.15911 0 8 0C6.84089 0 5.864 0.7533 5.49689 1.8H1.77778C0.795556 1.8 0 2.6055 0 3.6V16.2C0 17.1945 0.795556 18 1.77778 18H14.2222C15.2044 18 16 17.1945 16 16.2V3.6C16 2.6055 15.2044 1.8 14.2222 1.8ZM8 1.8C8.49067 1.8 8.88889 2.2032 8.88889 2.7C8.88889 3.1968 8.49067 3.6 8 3.6C7.50933 3.6 7.11111 3.1968 7.11111 2.7C7.11111 2.2032 7.50933 1.8 8 1.8ZM11.512 11.8611L10.6053 13.41L8.88889 12.3795V14.4H7.11111V12.3795L5.39467 13.41L4.488 11.8611L6.25689 10.8L4.48889 9.7389L5.39556 8.19L7.11111 9.2205V7.2H8.88889V9.2205L10.6053 8.19L11.512 9.7389L9.74311 10.8L11.512 11.8611Z" fill="#001431"/>
</svg>
