<svg width="10" height="18" viewBox="0 0 10 18" fill="none" xmlns="http://www.w3.org/2000/svg">
<path d="M7.07194 12.3407C7.07194 11.8233 6.91658 11.4132 6.60588 11.1104C6.30192 10.8013 5.78183 10.5174 5.04559 10.2587C4.30935 10 3.67443 9.74448 3.14083 9.49211C2.60723 9.23344 2.14792 8.94006 1.76292 8.61199C1.38467 8.2776 1.08747 7.88644 0.871327 7.43849C0.661938 6.99054 0.557244 6.45741 0.557244 5.83912C0.557244 4.77287 0.921986 3.89905 1.65147 3.21767C2.38095 2.53628 3.35022 2.1388 4.55927 2.02524V0.810537C4.55927 0.362889 4.92216 0 5.36981 0C5.81745 0 6.18034 0.36289 6.18034 0.810537V2.05363C7.37589 2.21136 8.31138 2.67823 8.98683 3.45426C9.46985 4.00469 9.78016 4.67288 9.91777 5.45884C10.013 6.00284 9.55228 6.45426 9 6.45426H8.07194C7.51965 6.45426 7.10371 5.99496 6.9461 5.46564C6.86167 5.1821 6.73475 4.94697 6.56535 4.76025C6.23438 4.3817 5.78858 4.19243 5.22796 4.19243C4.6741 4.19243 4.24519 4.34069 3.94124 4.63722C3.63728 4.92744 3.48531 5.33123 3.48531 5.84858C3.48531 6.32808 3.63391 6.71293 3.9311 7.00315C4.2283 7.29338 4.77879 7.58991 5.58257 7.89274C6.39311 8.19558 7.05843 8.48265 7.57852 8.75394C8.09861 9.01893 8.53766 9.32177 8.89564 9.66246C9.25363 9.99685 9.52719 10.3817 9.71631 10.817C9.90544 11.2461 10 11.7476 10 12.3218C10 13.3943 9.64201 14.265 8.92604 14.9338C8.21006 15.6025 7.22391 15.9968 5.96758 16.1167V17.1945C5.96758 17.6394 5.60696 18 5.16211 18C4.71726 18 4.35664 17.6394 4.35664 17.1945V16.1262C2.97197 15.9874 1.89801 15.53 1.13475 14.7539C0.583295 14.1837 0.232832 13.4776 0.0833638 12.6357C-0.0131838 12.092 0.447715 11.6404 1 11.6404H1.92806C2.48035 11.6404 2.89706 12.1011 3.06674 12.6267C3.16129 12.9196 3.30419 13.1681 3.49544 13.3722C3.88045 13.7697 4.43094 13.9685 5.14691 13.9685C5.7413 13.9685 6.21074 13.8233 6.55522 13.5331C6.8997 13.2366 7.07194 12.8391 7.07194 12.3407Z" fill="#CCD0E3"/>
</svg>
