<svg width="18" height="16" viewBox="0 0 18 16" fill="none" xmlns="http://www.w3.org/2000/svg">
<path d="M3.95977 6.70246V9.29754C3.95977 9.72806 3.62648 10.0784 3.21583 10.0784H0.743945C0.333287 10.0784 0 9.72806 0 9.29754V6.70246C0 6.2709 0.333287 5.92159 0.743945 5.92159H3.21583C3.62648 5.92159 3.95977 6.27194 3.95977 6.70246ZM17.2556 5.92159H6.59086H6.20351C5.79335 5.92159 5.45957 6.2709 5.45957 6.70246V9.29754C5.45957 9.72806 5.79335 10.0784 6.20351 10.0784H6.59086H17.2561C17.6667 10.0784 18 9.72806 18 9.29754V6.70246C17.9995 6.27194 17.6667 5.92159 17.2556 5.92159ZM3.21583 0H0.743945C0.333287 0 0 0.349308 0 0.780869V3.37596C0 3.80752 0.333287 4.15682 0.743945 4.15682H3.21583C3.62648 4.15682 3.95977 3.80752 3.95977 3.37596V0.780869C3.95977 0.35035 3.62648 0 3.21583 0ZM17.2556 0H6.59086H6.20351C5.79335 0 5.45957 0.349308 5.45957 0.780869V3.37596C5.45957 3.80752 5.79335 4.15682 6.20351 4.15682H6.59086H17.2561C17.6667 4.15682 18 3.80752 18 3.37596V0.780869C17.9995 0.35035 17.6667 0 17.2556 0ZM3.21583 11.8437H0.743945C0.333287 11.8437 0 12.193 0 12.6246V15.2191C0 15.6512 0.333287 16 0.743945 16H3.21583C3.62648 16 3.95977 15.6512 3.95977 15.2191V12.6246C3.95977 12.193 3.62648 11.8437 3.21583 11.8437ZM17.2556 11.8437H6.59086H6.20351C5.79335 11.8437 5.45957 12.193 5.45957 12.6246V15.2191C5.45957 15.6512 5.79335 16 6.20351 16H6.59086H17.2561C17.6667 16 18 15.6512 18 15.2191V12.6246C17.9995 12.193 17.6667 11.8437 17.2556 11.8437Z" fill="#CCD0E3"/>
</svg>
