<svg width="20" height="18" viewBox="0 0 20 18" fill="none" xmlns="http://www.w3.org/2000/svg">
<path d="M19.2048 14.0861C21.6335 9.24418 18.1988 3.51343 12.9691 3.51343C9.09975 3.51343 5.94804 6.74094 5.94804 10.7549C5.94804 16.226 11.5614 19.6385 16.176 17.1988L18.9357 17.7386C19.3668 17.823 19.7492 17.438 19.6766 16.9906L19.2048 14.0861ZM13.6222 13.9352V14.2717C13.6222 14.6316 13.3393 14.9234 12.9904 14.9234C12.6414 14.9234 12.3585 14.6316 12.3585 14.2717V13.9567C11.9293 13.8096 11.5547 13.5084 11.316 13.1C11.1359 12.7918 11.2321 12.3913 11.531 12.2055C11.8298 12.0196 12.2182 12.119 12.3983 12.4272C12.7393 13.0107 13.6119 12.7607 13.6119 12.0804C13.6119 11.7088 13.3188 11.4066 12.9586 11.4066C11.9514 11.4066 11.0624 10.5407 11.0624 9.42946C11.0624 8.57975 11.5848 7.85365 12.3158 7.57456V7.23809C12.3158 6.8782 12.5987 6.58641 12.9476 6.58641C13.2965 6.58641 13.5794 6.8782 13.5794 7.23809V7.5531C14.0087 7.70022 14.3833 8.00142 14.622 8.40974C14.8021 8.71798 14.7059 9.11849 14.407 9.3043C14.1082 9.49011 13.7198 9.39085 13.5397 9.0826C13.1986 8.4991 12.3261 8.74914 12.3261 9.42942C12.3261 9.76435 12.5651 10.0895 13.0004 10.1043C14.0381 10.1273 14.8756 11.0045 14.8756 12.0804C14.8756 12.9301 14.3531 13.6562 13.6222 13.9352Z" fill="#CCD0E3"/>
<path d="M12.1145 2.25502C9.36912 -0.726841 4.81637 -0.729855 2.0556 2.1176C-0.186022 4.42961 -0.569788 7.86937 0.784491 10.5693L0.31274 13.4738C0.240157 13.9208 0.622146 14.3063 1.05366 14.2217L3.81335 13.6819C4.3225 13.9512 4.86383 14.1536 5.42112 14.2874C3.11517 9.05226 6.43503 2.8514 12.1145 2.25502Z" fill="#CCD0E3"/>
</svg>
