<svg width="22" height="16" viewBox="0 0 22 16" fill="none" xmlns="http://www.w3.org/2000/svg">
<path d="M6.50037 14.5C7.85785 15.5612 9.14375 16 11.0004 16C15.08 16 18.4464 12.9463 18.9385 9H20.1318C20.9305 9 21.4069 8.10985 20.9639 7.4453L18.8324 4.24808C18.4366 3.65434 17.5641 3.65434 17.1683 4.24808L15.0368 7.4453C14.5938 8.10985 15.0702 9 15.8689 9H16.9174C16.4413 11.8377 13.9733 14 11.0004 14C9.90707 14 8.88209 13.7076 7.99934 13.1967L6.50037 14.5Z" fill="white"/>
<path d="M14.0013 2.80326C13.1186 2.2924 12.0936 2 11.0004 2C8.02736 2 5.55939 4.16229 5.08331 7H6.13184C6.93053 7 7.40692 7.89015 6.96389 8.5547L4.8324 11.7519C4.43658 12.3457 3.56412 12.3457 3.1683 11.7519L1.03682 8.5547C0.593782 7.89014 1.07017 7 1.86887 7H3.06225C3.55434 3.05369 6.92074 0 11.0004 0C12.8569 0 14.1429 0.438812 15.5004 1.5L14.0013 2.80326Z" fill="white"/>
</svg>
