<svg width="18" height="18" viewBox="0 0 18 18" fill="none" xmlns="http://www.w3.org/2000/svg">
<path d="M5.14286 3.85714C5.85293 3.85714 6.42857 4.43278 6.42857 5.14286C6.42857 5.85293 5.85293 6.42857 5.14286 6.42857C4.43278 6.42857 3.85714 5.85293 3.85714 5.14286C3.85714 4.43278 4.43278 3.85714 5.14286 3.85714ZM18 14.1429C18 16.2731 16.2731 18 14.1429 18H5.14286L9 14.1429H10.6298C11.0744 14.9114 11.9054 15.4286 12.8571 15.4286C14.2773 15.4286 15.4286 14.2773 15.4286 12.8571C15.4286 11.437 14.2773 10.2857 12.8571 10.2857C11.9054 10.2857 11.0744 10.8029 10.6298 11.5714H7.71429L1.8491 17.4366C0.74019 16.7591 0 15.5375 0 14.1429V3.85714C0 1.7269 1.7269 0 3.85714 0V2.91552C3.08857 3.36013 2.57143 4.19109 2.57143 5.14286C2.57143 6.56301 3.72271 7.71429 5.14286 7.71429C6.0926 7.71429 6.92196 7.19934 7.36728 6.43347L10.6301 6.42907C11.0748 7.19737 11.9056 7.71429 12.8571 7.71429C14.2773 7.71429 15.4286 6.56301 15.4286 5.14286C15.4286 3.72271 14.2773 2.57143 12.8571 2.57143C11.9052 2.57143 11.0741 3.08879 10.6295 3.85764L7.37309 3.86204C7.14716 3.4695 6.82057 3.14229 6.42857 2.91552V0H14.1429C16.2731 0 18 1.7269 18 3.85714V14.1429ZM11.5714 12.8571C11.5714 12.1471 12.1471 11.5714 12.8571 11.5714C13.5672 11.5714 14.1429 12.1471 14.1429 12.8571C14.1429 13.5672 13.5672 14.1429 12.8571 14.1429C12.1471 14.1429 11.5714 13.5672 11.5714 12.8571ZM11.5714 5.14286C11.5714 4.43278 12.1471 3.85714 12.8571 3.85714C13.5672 3.85714 14.1429 4.43278 14.1429 5.14286C14.1429 5.85293 13.5672 6.42857 12.8571 6.42857C12.1471 6.42857 11.5714 5.85293 11.5714 5.14286Z" fill="#CCD0E3"/>
</svg>
