<svg width="20" height="19" viewBox="0 0 20 19" fill="none" xmlns="http://www.w3.org/2000/svg">
<path d="M5 0C4.73479 2.65169e-05 4.48045 0.105392 4.29292 0.292922C4.10539 0.480453 4.00003 0.734792 4 1V3.49219L0.992188 5.24609C0.380188 5.60309 0 6.26561 0 6.97461V17C0 18.103 0.897 19 2 19H18C19.103 19 20 18.103 20 17V6.97461C20 6.26561 19.6198 5.60309 19.0078 5.24609L16 3.49219V1C16 0.734792 15.8946 0.480453 15.7071 0.292922C15.5195 0.105392 15.2652 2.65169e-05 15 0H5ZM6 2H14V9.33398L10 11.8223L6 9.33203V2ZM4 5.80664V8.08789L2.10742 6.91016L4 5.80664ZM16 5.80859L17.8926 6.91211L16 8.08984V5.80859Z" fill="white"/>
</svg>
