<svg width="17" height="18" viewBox="0 0 17 18" fill="none" xmlns="http://www.w3.org/2000/svg">
<path fill-rule="evenodd" clip-rule="evenodd" d="M14 6C15.6569 6 17 4.65685 17 3C17 1.34315 15.6569 0 14 0C12.3431 0 11 1.34315 11 3C11 3.13708 11.0092 3.27202 11.027 3.40423L5.05661 6.81588C4.51958 6.31001 3.79599 6 3 6C1.34315 6 0 7.34315 0 9C0 10.6569 1.34315 12 3 12C3.77051 12 4.47318 11.7095 5.00447 11.2321L11.0504 15.5506C11.309 16.9445 12.5312 18 14 18C15.6569 18 17 16.6569 17 15C17 13.3431 15.6569 12 14 12C12.9353 12 12.0001 12.5547 11.4676 13.3908L5.96491 9.46031C5.98801 9.31025 6 9.15653 6 9C6 8.8629 5.9908 8.72795 5.97299 8.59574L11.9434 5.1841C12.4804 5.68998 13.204 6 14 6ZM13 15.0085C13.0001 15.0031 13.0001 14.9977 13 14.9924C13.0041 14.4436 13.4503 14 14 14C14.5523 14 15 14.4477 15 15C15 15.5523 14.5523 16 14 16C13.4505 16 13.0046 15.5569 13 15.0085ZM14 4C14.5523 4 15 3.55228 15 3C15 2.44772 14.5523 2 14 2C13.4477 2 13 2.44772 13 3C13 3.55228 13.4477 4 14 4ZM4 9C4 9.55228 3.55228 10 3 10C2.44772 10 2 9.55228 2 9C2 8.44772 2.44772 8 3 8C3.55228 8 4 8.44772 4 9Z" fill="#546AE4"/>
</svg>
