<svg width="14" height="18" viewBox="0 0 14 18" fill="none" xmlns="http://www.w3.org/2000/svg">
<path d="M10 0C10.5523 0 11 0.447715 11 1L13 1C13.5523 1 14 1.44772 14 2C14 2.55229 13.5523 3 13 3L1 3C0.447716 3 0 2.55228 0 2C0 1.44772 0.447715 0.999999 1 0.999999L3 1C3 0.447715 3.44772 0 4 0H10Z" fill="#CCD0E3"/>
<path fill-rule="evenodd" clip-rule="evenodd" d="M1 4H13V16C13 17.1046 12.1046 18 11 18H3C1.89543 18 1 17.1046 1 16V4ZM4.5 6C4.22386 6 4 6.22386 4 6.5V15.5C4 15.7761 4.22386 16 4.5 16C4.77614 16 5 15.7761 5 15.5V6.5C5 6.22386 4.77614 6 4.5 6ZM9.5 6C9.22386 6 9 6.22386 9 6.5V15.5C9 15.7761 9.22386 16 9.5 16C9.77614 16 10 15.7761 10 15.5V6.5C10 6.22386 9.77614 6 9.5 6Z" fill="#CCD0E3"/>
</svg>
