<svg width="9" height="9" viewBox="0 0 9 9" fill="none" xmlns="http://www.w3.org/2000/svg">
<path fill-rule="evenodd" clip-rule="evenodd" d="M0.292893 0.292893C0.683418 -0.0976311 1.31658 -0.0976311 1.70711 0.292893L8.70711 7.29289C9.09763 7.68342 9.09763 8.31658 8.70711 8.70711C8.31658 9.09763 7.68342 9.09763 7.29289 8.70711L0.292893 1.70711C-0.0976309 1.31658 -0.0976309 0.683417 0.292893 0.292893Z" fill="#9A9AB5"/>
<path fill-rule="evenodd" clip-rule="evenodd" d="M8.70711 0.292893C9.09763 0.683418 9.09763 1.31658 8.70711 1.70711L1.70711 8.70711C1.31658 9.09763 0.683418 9.09763 0.292893 8.70711C-0.0976311 8.31658 -0.0976311 7.68342 0.292893 7.29289L7.29289 0.292893C7.68342 -0.097631 8.31658 -0.097631 8.70711 0.292893Z" fill="#9A9AB5"/>
</svg>
