<svg width="110" height="41" viewBox="0 0 110 41" fill="none" xmlns="http://www.w3.org/2000/svg">
<path d="M55.3869 10.3827C56.1053 10.5454 56.8644 9.97609 57.027 9.12213C57.2168 8.26816 56.7424 7.48198 56.0104 7.31932C55.2513 7.15666 54.5329 7.69885 54.3432 8.55282C54.1805 9.40678 54.6278 10.2336 55.3869 10.3827Z" fill="#556AE0"/>
<path d="M108.577 25.8223C107.791 25.8223 107.126 26.4865 107.126 27.2998C107.126 28.1131 107.791 28.7773 108.577 28.7773C109.363 28.7773 110 28.1131 110 27.2998C110 26.4865 109.363 25.8223 108.577 25.8223Z" fill="#556AE0"/>
<path d="M106.069 21.81C105.527 21.5253 104.836 21.7422 104.592 22.3115C103.995 23.5044 103.589 24.6837 102.355 25.5647C101.501 26.2018 100.593 26.3916 100.078 26.3916H100.051C99.5491 26.3916 99.0476 26.3645 98.79 25.9849C98.5731 25.6732 98.1529 24.6294 99.1425 21.566C99.2102 21.566 99.3051 21.5389 99.3593 21.4982C101.596 20.5494 103.589 18.8415 105.351 16.4151C107.113 13.9481 108.035 11.5218 108.319 10.5729C108.794 9.24451 108.983 7.9839 108.956 6.98083C108.888 5.43556 108.224 4.77136 107.669 4.51382C107.316 4.32405 106.53 4.10717 105.554 4.67648C105.012 5.02891 104.456 5.59822 103.914 6.38441C102.816 7.92968 101.447 10.3289 100.159 13.1077C98.8985 15.7238 97.787 18.4755 97.0686 20.6849C96.9465 21.078 96.8246 21.4576 96.7297 21.8371L95.8893 24.4532C95.3606 26.0663 94.1542 26.6898 93.3409 26.4729C91.511 26.0256 92.4598 23.2604 93.124 21.1458C93.124 21.1458 95.5233 13.5414 95.5504 13.4737C95.9977 12.0504 93.8831 11.3862 93.4358 12.7824L93.246 13.3517C92.1752 12.0233 90.2504 11.7115 88.7593 12.3079C85.9534 13.4059 85.7366 15.3036 83.6491 21.9998C83.4864 22.5013 83.3238 23.0435 83.2153 23.5857C83.2153 23.5993 83.2153 23.6128 83.2018 23.6264C82.7409 25.0496 82.4834 25.5376 81.3854 26.0798C80.3417 26.6491 79.2031 27.1507 78.0102 27.6929L82.4969 13.2975C82.9442 11.8742 80.8297 11.21 80.3823 12.6062L77.6984 21.2542C75.8685 26.4865 72.7102 26.7711 71.9918 25.5105C71.4496 24.5617 72.2358 22.0675 72.4933 21.0238L74.8926 13.2975C75.3263 11.8742 73.1846 11.21 72.778 12.6062C71.9511 15.2494 70.9481 18.2857 70.2161 20.9967C70.1754 21.1458 70.1348 21.2949 70.0941 21.444C69.3892 22.5013 69.4163 25.0632 67.3424 26.0392C65.5532 26.8931 62.8015 25.8223 63.1133 23.2875C63.2353 21.9591 63.0862 20.6714 61.8527 19.3837C63.7097 17.7706 63.8723 15.6831 65.0381 15.1816C65.8514 14.8021 66.7731 15.5611 66.5562 16.4829C66.1767 17.9062 68.3591 18.4348 68.7386 17.0115C69.0233 15.778 68.5759 14.4225 67.6406 13.6363C66.6918 12.823 65.2685 12.6333 64.1299 13.1348C61.9882 14.1108 61.9611 16.388 60.3074 17.7435L65.3905 1.49105C65.8378 0.067775 63.6826 -0.59642 63.2488 0.826855L58.6672 15.4934L58.2877 16.6998L57.6235 18.8008L56.9593 20.8883L56.7018 21.7016C56.5933 22.0811 56.4713 22.5149 56.3493 22.9486L56.3358 23.0164L55.9427 24.277C55.4276 25.6867 54.7227 26.8118 53.4892 26.3645C52.5133 26.012 52.4455 24.8463 52.5404 23.8975C52.703 22.3793 54.4652 16.9573 55.6309 13.2975C56.0647 11.8742 53.9636 11.21 53.5163 12.6062C52.1202 16.8895 50.5207 21.9184 50.3038 23.6806C50.2902 23.8704 50.2767 24.0601 50.2767 24.2363C50.2631 24.2906 50.236 24.3448 50.2225 24.399C49.9378 25.6325 49.1381 26.2289 48.3654 26.3645C47.647 26.4865 46.9964 25.9172 46.9557 25.1987C46.9015 24.4397 46.9286 23.5586 47.0099 22.542C47.0642 21.7558 47.1726 20.8747 47.3081 19.9259C47.9181 15.8322 49.3143 10.0443 51.6593 1.78926C51.7949 1.38261 51.6864 0.94885 51.4289 0.62353C51.3475 0.51509 51.2391 0.420205 51.1171 0.35243C50.6156 0.0677748 49.9649 0.13555 49.5718 0.528645C46.8744 3.03632 43.7161 8.6752 41.5202 12.9586C41.1813 13.6228 40.8424 14.287 40.5306 14.9241C39.88 16.2524 39.2836 17.5266 38.7549 18.6923C38.5923 19.0448 38.4432 19.3701 38.2941 19.709C38.3347 19.0177 38.3754 18.2857 38.4296 17.5402C38.4567 17.0793 38.4974 16.6049 38.5381 16.1305C38.7143 13.189 38.9312 10.1663 38.8634 7.57725C38.8092 4.98824 38.4567 3.17187 37.8061 1.95192C37.6299 1.61305 37.4265 1.32839 37.2097 1.07085C36.5997 0.37954 35.7999 0.02711 34.946 0H34.7969C34.4444 0 34.0785 4.1205e-07 33.726 0.0406654C32.357 0.10844 30.893 0.718415 29.5918 1.76215C28.2634 2.833 27.3281 4.13428 26.9756 5.48978C26.4063 7.42814 27.0841 9.25807 28.8462 10.478C29.4155 10.9118 30.2153 10.7627 30.6355 10.1934C31.0286 9.62405 30.893 8.82431 30.3102 8.4041C29.4427 7.79413 29.158 7.07571 29.4155 6.18108C29.6324 5.35423 30.2831 4.50026 31.1777 3.76829C32.0452 3.04988 33.0483 2.61612 33.8751 2.54834C34.3496 2.54834 34.6342 2.54834 34.8104 2.589L34.5664 3.5243C34.2818 4.20205 33.8751 5.13735 33.4143 6.18108C33.2381 6.5064 33.0889 6.85883 32.9534 7.22481C32.479 8.26855 31.8419 9.77316 31.1235 11.5353C29.7544 14.7614 28.0736 18.7872 26.4877 22.2031C25.715 23.8026 25.0102 25.131 24.4273 26.1612C24.3595 26.2831 24.2918 26.4051 24.224 26.5136C23.7496 27.2998 23.3971 27.7606 23.1667 28.0317C22.9498 28.2757 22.8414 28.3435 22.8278 28.3435C22.1772 28.6688 21.8925 29.4144 22.1772 30.0379C22.3941 30.4988 22.8549 30.7834 23.3565 30.7834C23.5056 30.7834 23.7224 30.7563 23.858 30.675C24.4815 30.3768 25.1186 29.7532 25.8506 28.6824C25.9997 28.4655 26.1488 28.2351 26.2979 27.9911C26.6097 27.4624 26.935 26.8796 27.301 26.2154C27.7347 25.4156 28.1956 24.4939 28.7107 23.423C30.3102 20.0478 31.9774 16.0627 33.3194 12.823C33.36 12.7146 33.4143 12.6197 33.4549 12.5113C34.1733 10.7898 34.824 9.28518 35.2442 8.28211C35.4204 7.91612 35.5695 7.56369 35.7051 7.23837L36.2066 6.16753C36.2337 6.60129 36.2744 7.10282 36.2744 7.64502C36.3015 8.68876 36.2879 9.80027 36.2337 10.9524C36.1795 12.5926 36.0575 14.3005 35.9491 15.9813C35.5966 21.1458 35.4069 24.4261 36.2066 26.1069C36.4235 26.5678 36.925 26.866 37.4672 26.8253C37.9687 26.7847 38.4296 26.4322 38.5787 25.9307C39.1345 24.1008 41.0186 19.6276 43.4721 14.7478C43.567 14.5581 43.6618 14.3683 43.7567 14.1785C45.0445 11.6709 46.2644 9.47495 47.3895 7.60436C47.1184 8.64809 46.8608 9.63761 46.6304 10.5865C45.0851 16.8353 44.3667 21.1865 44.3667 24.277C44.3667 24.6565 44.3803 25.009 44.3938 25.3479C44.4209 25.8765 44.57 26.378 44.8276 26.8389V26.8525C45.424 27.9369 46.4948 28.5333 47.6606 28.6417C48.867 28.7502 50.1547 28.3164 51.1035 27.3269C51.3204 27.598 51.7 28.0182 52.2828 28.3164C53.6654 29.0077 55.0616 28.4926 55.3327 28.3842C55.3327 28.3842 57.2575 27.6386 58.0437 25.0225C58.0573 24.9954 58.0573 24.9548 58.0708 24.9276C58.0844 24.887 58.0979 24.8463 58.0979 24.8192C58.4232 23.7484 58.8163 22.4064 59.3314 20.7392C59.4941 20.712 59.6432 20.6443 59.7787 20.5765C60.2803 20.9289 60.6598 21.4576 60.8225 22.054C60.9174 22.3386 60.8903 22.6504 60.8225 23.0299C60.2938 27.7471 66.3529 30.7834 69.945 26.6898C70.4465 27.72 71.4632 28.3571 73.2931 28.3571C74.147 28.3571 74.9061 28.1131 75.6245 27.6929L75.2721 28.7908C69.7146 31.0681 62.5846 33.2369 64.1299 37.7507C64.4146 38.6046 65.3363 40.1092 68.1693 40.6243C74.2555 41.763 75.7059 34.8228 77.102 30.4581C80.8025 28.9264 82.6325 28.086 83.6762 27.1507C83.7033 27.2049 83.744 27.2456 83.7846 27.2998C85.2621 29.2246 88.5831 29.0348 90.6299 27.1778C91.9176 29.1568 94.954 29.3466 96.8245 27.1642C96.8517 27.2184 96.8923 27.2591 96.9194 27.3133C97.8683 28.6011 99.3864 28.6417 100.01 28.6417H100.037C103.602 28.6417 105.879 24.6701 106.543 23.3417C106.855 22.7588 106.638 22.0947 106.069 21.81ZM105.717 7.64502C106.123 7.07571 106.449 6.79106 106.638 6.66906C106.665 6.79106 106.706 7.0486 106.706 7.40103C106.706 7.87546 106.611 8.68876 106.205 9.89515C105.256 12.7417 103.182 16.4287 100.24 18.4755C101.813 14.4632 104.022 10.0443 105.717 7.64502ZM68.603 38.442C67.3424 38.1844 66.4885 37.6829 66.2716 37.0187C65.5532 34.9041 70.7176 33.0471 74.4452 31.5289C73.5913 34.2399 72.5069 39.1333 68.603 38.442ZM91.4974 18.7059C90.9959 20.3325 90.5757 20.9831 90.0335 23.9924C89.6268 26.2696 86.4414 27.0151 85.5875 25.9172C85.235 25.4698 85.1944 24.9141 85.3435 24.1957C85.3435 24.1957 85.3435 24.1957 85.3435 24.1821C85.4926 23.667 85.6688 23.0977 85.8721 22.42C85.8992 22.3115 85.9263 22.2031 85.9263 22.0947C87.4445 17.1877 87.824 15.6018 88.7051 14.8563C89.0982 14.5174 89.5591 14.3819 89.5591 14.3819C89.8166 14.287 90.5621 14.0294 91.3483 14.3819C91.5923 14.4903 91.7956 14.653 91.9447 14.8021C92.2294 15.0867 92.3378 15.5069 92.243 15.9C91.9719 17.0793 91.7008 18.0282 91.4974 18.7059Z" fill="#556AE0"/>
<path d="M21.025 5.77435L18.1785 7.07563C19.3171 9.5562 18.5851 12.4163 16.5654 14.07C16.4841 13.5414 16.335 13.0263 16.1046 12.5247C14.7491 9.58331 11.279 8.29558 8.32398 9.65108C7.86311 9.86796 7.44291 10.1255 7.06337 10.4373C6.80582 8.77001 7.28025 7.07563 8.33754 5.80146C9.21861 4.73062 10.3437 3.84954 11.6721 3.22601C14.8846 1.74852 18.5173 2.2365 21.1877 4.18842C21.757 4.59507 21.6757 5.47614 21.025 5.77435Z" fill="#546AE4"/>
<path d="M15.2776 18.7062C15.0472 18.9908 14.7761 19.2484 14.4915 19.4924C14.4101 19.0044 14.261 18.5164 14.0441 18.042C13.3935 16.6051 12.2278 15.575 10.8723 15.0328C10.818 15.0192 10.7638 14.9921 10.7096 14.965C9.31345 14.4635 7.72751 14.477 6.26357 15.1548C5.78914 15.3716 5.36894 15.6427 4.97585 15.9545C4.60986 13.8806 5.40961 11.7389 7.04976 10.4105C7.4293 10.0987 7.84951 9.8412 8.31038 9.62432C11.2518 8.26882 14.7354 9.55654 16.0909 12.498C16.3214 12.9995 16.4705 13.5282 16.5518 14.0432C16.8229 15.7376 16.3349 17.432 15.2776 18.7062Z" fill="#5A9DF1"/>
<path d="M13.2309 24.2366C12.3633 25.3074 11.2247 26.1885 9.89633 26.812C6.67024 28.2895 3.05105 27.8015 0.380716 25.8496C-0.188594 25.4294 -0.107264 24.5483 0.543376 24.2501L3.38993 22.9488C2.25131 20.4818 2.98328 17.6217 4.98942 15.9816C5.36896 15.6698 5.80272 15.3987 6.27714 15.1818C7.72753 14.5176 9.32701 14.4905 10.7232 14.9921C10.7774 15.0192 10.8316 15.0327 10.8858 15.0598C12.2413 15.5885 13.4071 16.6322 14.0577 18.069C14.2746 18.5435 14.4237 19.0314 14.505 19.5194C14.7897 21.2002 14.3153 22.9353 13.2309 24.2366Z" fill="#60D0FE"/>
</svg>
