<svg width="40" height="24" viewBox="0 0 40 24" fill="none" xmlns="http://www.w3.org/2000/svg">
<path d="M40 12C40 18.6032 34.6667 24 28 24C21.3968 24 16 18.6032 16 12C16 5.39682 21.3333 0 27.9365 0C34.6667 0 40 5.39682 40 12Z" fill="#FFB600"/>
<path d="M28 0C34.6032 0 40 5.39682 40 12C40 18.6032 34.6667 24 28 24C21.3968 24 16 18.6032 16 12" fill="#F7981D"/>
<path d="M28 0C34.6032 0 40 5.39682 40 12C40 18.6032 34.6667 24 28 24" fill="#FF8500"/>
<path d="M11.873 0C5.33333 0.0634921 0 5.39682 0 12C0 18.6032 5.33333 24 12 24C15.1111 24 17.9048 22.7936 20.0635 20.8889C20.5079 20.5079 20.8889 20.0635 21.2698 19.619H18.7937C18.4762 19.2381 18.1587 18.7936 17.9048 18.4127H22.1587C22.4127 18.0317 22.6667 17.5873 22.8571 17.1429H17.2064C17.0159 16.7619 16.8254 16.3175 16.6984 15.873H23.3016C23.6825 14.6667 23.9365 13.3968 23.9365 12.0635C23.9365 11.1746 23.8095 10.3492 23.6825 9.52381H16.3175C16.381 9.07936 16.5079 8.69841 16.6349 8.25397H23.2381C23.1111 7.80952 22.9206 7.36508 22.7302 6.98413H17.1429C17.3333 6.53968 17.5873 6.15873 17.8413 5.71429H22.0952C21.8413 5.26984 21.5238 4.8254 21.1429 4.44444H18.7937C19.1746 4 19.5556 3.61905 20 3.2381C17.9048 1.26984 15.0476 0.126984 11.9365 0.126984C11.9365 -1.22994e-07 11.9365 0 11.873 0Z" fill="#FF5050"/>
<path d="M0 12C0 18.6031 5.33333 24 12 24C15.1111 24 17.9048 22.7936 20.0635 20.8889C20.5079 20.5079 20.8889 20.0635 21.2698 19.619H18.7937C18.4762 19.2381 18.1587 18.7936 17.9048 18.4127H22.1587C22.4127 18.0317 22.6667 17.5873 22.8571 17.1428H17.2064C17.0159 16.7619 16.8254 16.3174 16.6984 15.873H23.3016C23.6825 14.6666 23.9365 13.3968 23.9365 12.0635C23.9365 11.1746 23.8095 10.3492 23.6825 9.52378H16.3175C16.381 9.07933 16.5079 8.69838 16.6349 8.25394H23.2381C23.1111 7.80949 22.9206 7.36505 22.7302 6.9841H17.1429C17.3333 6.53965 17.5873 6.1587 17.8413 5.71425H22.0952C21.8413 5.26981 21.5238 4.82537 21.1429 4.44441H18.7937C19.1746 3.99997 19.5556 3.61902 20 3.23806C17.9048 1.26981 15.0476 0.126953 11.9365 0.126953H11.873" fill="#E52836"/>
<path d="M12.002 24C15.1131 24 17.9067 22.7936 20.0655 20.8889C20.5099 20.5079 20.8909 20.0635 21.2718 19.619H18.7956C18.4782 19.2381 18.1607 18.7936 17.9067 18.4127H22.1607C22.4147 18.0317 22.6686 17.5873 22.8591 17.1428H17.2083C17.0179 16.7619 16.8274 16.3174 16.7004 15.873H23.3036C23.6845 14.6666 23.9385 13.3968 23.9385 12.0635C23.9385 11.1746 23.8115 10.3492 23.6845 9.52378H16.3194C16.3829 9.07933 16.5099 8.69838 16.6369 8.25394H23.2401C23.1131 7.80949 22.9226 7.36505 22.7321 6.9841H17.1448C17.3353 6.53965 17.5893 6.1587 17.8433 5.71425H22.0972C21.8433 5.26981 21.5258 4.82537 21.1448 4.44441H18.7956C19.1766 3.99997 19.5575 3.61902 20.002 3.23806C17.9067 1.26981 15.0496 0.126953 11.9385 0.126953H11.875" fill="#CB2026"/>
<path d="M16.2514 15.0473L16.4419 13.9679C16.3784 13.9679 16.2514 14.0314 16.1244 14.0314C15.68 14.0314 15.6165 13.7774 15.68 13.6504L16.0609 11.4282H16.7594L16.9498 10.2219H16.3149L16.4419 9.45996H15.1721C15.1721 9.45996 14.4102 13.6504 14.4102 14.1584C14.4102 14.9203 14.8546 15.2377 15.426 15.2377C15.807 15.2377 16.1244 15.1108 16.2514 15.0473Z" fill="white"/>
<path d="M16.6953 13.0156C16.6953 14.7934 17.9017 15.2378 18.9175 15.2378C19.8699 15.2378 20.2509 15.0473 20.2509 15.0473L20.5048 13.841C20.5048 13.841 19.8064 14.1584 19.1715 14.1584C17.7747 14.1584 18.0286 13.1426 18.0286 13.1426H20.6318C20.6318 13.1426 20.8223 12.3172 20.8223 11.9997C20.8223 11.1743 20.3779 10.1584 18.981 10.1584C17.6477 10.0314 16.6953 11.4283 16.6953 13.0156ZM18.9175 11.1743C19.6159 11.1743 19.489 11.9997 19.489 12.0632H18.0921C18.0921 11.9997 18.2191 11.1743 18.9175 11.1743Z" fill="white"/>
<path d="M26.9803 15.0474L27.2343 13.6506C27.2343 13.6506 26.5994 13.968 26.1549 13.968C25.2661 13.968 24.8851 13.2696 24.8851 12.5077C24.8851 10.9839 25.647 10.1585 26.5359 10.1585C27.1708 10.1585 27.6788 10.5395 27.6788 10.5395L27.8692 9.20613C27.8692 9.20613 27.1073 8.88867 26.4089 8.88867C24.9486 8.88867 23.4883 10.1585 23.4883 12.5712C23.4883 14.1585 24.2502 15.2379 25.774 15.2379C26.2819 15.2379 26.9803 15.0474 26.9803 15.0474Z" fill="white"/>
<path d="M9.26817 10.0317C8.37928 10.0317 7.74436 10.2857 7.74436 10.2857L7.55388 11.3651C7.55388 11.3651 8.12531 11.1111 8.95071 11.1111C9.39516 11.1111 9.77611 11.1746 9.77611 11.5555C9.77611 11.8095 9.71262 11.873 9.71262 11.873C9.71262 11.873 9.33166 11.873 9.14119 11.873C8.06182 11.873 6.85547 12.3174 6.85547 13.7778C6.85547 14.9206 7.61737 15.1746 8.06182 15.1746C8.95071 15.1746 9.33166 14.6031 9.39516 14.6031L9.33166 15.1111H10.4745L10.9825 11.619C10.9825 10.0952 9.71262 10.0317 9.26817 10.0317ZM9.52214 12.8889C9.52214 13.0793 9.39516 14.0952 8.63325 14.0952C8.2523 14.0952 8.12531 13.7778 8.12531 13.5873C8.12531 13.2698 8.31579 12.8254 9.26817 12.8254C9.45865 12.8889 9.52214 12.8889 9.52214 12.8889Z" fill="white"/>
<path d="M12.1869 15.1741C12.5043 15.1741 14.0916 15.2376 14.0916 13.5233C14.0916 11.936 12.5678 12.2535 12.5678 11.6186C12.5678 11.3011 12.8218 11.1741 13.2662 11.1741C13.4567 11.1741 14.1551 11.2376 14.1551 11.2376L14.3456 10.0948C14.3456 10.0948 13.9012 9.96777 13.1393 9.96777C12.1869 9.96777 11.2345 10.3487 11.2345 11.6186C11.2345 13.0789 12.8218 12.9519 12.8218 13.5233C12.8218 13.9043 12.3774 13.9678 12.0599 13.9678C11.4885 13.9678 10.917 13.7773 10.917 13.7773L10.7266 14.9201C10.7901 15.0471 11.1075 15.1741 12.1869 15.1741Z" fill="white"/>
<path d="M37.5214 9.01562L37.2674 10.7299C37.2674 10.7299 36.7595 10.095 36.0611 10.095C34.9182 10.095 33.9023 11.4918 33.9023 13.1426C33.9023 14.1585 34.4103 15.2378 35.4896 15.2378C36.2516 15.2378 36.696 14.7299 36.696 14.7299L36.6325 15.1744H37.9023L38.8547 9.07912L37.5214 9.01562ZM36.95 12.3807C36.95 13.0791 36.6325 13.968 35.9341 13.968C35.4896 13.968 35.2357 13.5871 35.2357 12.9521C35.2357 11.9363 35.6801 11.3013 36.2515 11.3013C36.696 11.3013 36.95 11.6188 36.95 12.3807Z" fill="white"/>
<path d="M2.34697 15.1109L3.10888 10.5394L3.23586 15.1109H4.12475L5.77555 10.5394L5.07713 15.1109H6.41047L7.42634 9.01562H5.3311L4.06126 12.7617L3.99777 9.01562H2.1565L1.14062 15.1109H2.34697Z" fill="white"/>
<path d="M22.0296 15.1111C22.4106 13.0158 22.4741 11.3015 23.363 11.619C23.49 10.7936 23.6804 10.4762 23.8074 10.1587C23.8074 10.1587 23.7439 10.1587 23.5534 10.1587C22.982 10.1587 22.5376 10.9206 22.5376 10.9206L22.6646 10.2222H21.4582L20.6328 15.1745H22.0296V15.1111Z" fill="white"/>
<path d="M29.901 10.0317C29.0121 10.0317 28.3772 10.2857 28.3772 10.2857L28.1867 11.3651C28.1867 11.3651 28.7581 11.1111 29.5835 11.1111C30.028 11.1111 30.4089 11.1746 30.4089 11.5555C30.4089 11.8095 30.3454 11.873 30.3454 11.873C30.3454 11.873 29.9645 11.873 29.774 11.873C28.6946 11.873 27.4883 12.3174 27.4883 13.7778C27.4883 14.9206 28.2502 15.1746 28.6946 15.1746C29.5835 15.1746 29.9645 14.6031 30.028 14.6031L29.9645 15.1111H31.1073L31.6153 11.619C31.6788 10.0952 30.3454 10.0317 29.901 10.0317ZM30.2184 12.8889C30.2184 13.0793 30.0915 14.0952 29.3296 14.0952C28.9486 14.0952 28.8216 13.7778 28.8216 13.5873C28.8216 13.2698 29.0121 12.8254 29.9645 12.8254C30.155 12.8889 30.155 12.8889 30.2184 12.8889Z" fill="white"/>
<path d="M32.6976 15.1111C33.0786 13.0158 33.1421 11.3015 34.0309 11.619C34.1579 10.7936 34.3484 10.4762 34.4754 10.1587C34.4754 10.1587 34.4119 10.1587 34.2214 10.1587C33.65 10.1587 33.2055 10.9206 33.2055 10.9206L33.3325 10.2222H32.1262L31.3008 15.1745H32.6976V15.1111Z" fill="white"/>
<path d="M14.2852 14.1584C14.2852 14.9203 14.7296 15.2377 15.301 15.2377C15.7455 15.2377 16.1264 15.1108 16.2534 15.0473L16.4439 13.9679C16.3804 13.9679 16.2534 14.0314 16.1264 14.0314C15.682 14.0314 15.6185 13.7774 15.682 13.6504L16.0629 11.4282H16.7613L16.9518 10.2219H16.3169L16.4439 9.45996" fill="#DCE5E5"/>
<path d="M17.332 13.0156C17.332 14.7934 17.9035 15.2378 18.9193 15.2378C19.8717 15.2378 20.2527 15.0473 20.2527 15.0473L20.5066 13.841C20.5066 13.841 19.8082 14.1584 19.1733 14.1584C17.7765 14.1584 18.0304 13.1426 18.0304 13.1426H20.6336C20.6336 13.1426 20.8241 12.3172 20.8241 11.9997C20.8241 11.1743 20.3797 10.1584 18.9828 10.1584C17.6495 10.0314 17.332 11.4283 17.332 13.0156ZM18.9193 11.1743C19.6177 11.1743 19.7447 11.9997 19.7447 12.0632H18.0939C18.0939 11.9997 18.2209 11.1743 18.9193 11.1743Z" fill="#DCE5E5"/>
<path d="M26.9821 15.0474L27.2361 13.6506C27.2361 13.6506 26.6012 13.968 26.1567 13.968C25.2679 13.968 24.8869 13.2696 24.8869 12.5077C24.8869 10.9839 25.6488 10.1585 26.5377 10.1585C27.1726 10.1585 27.6806 10.5395 27.6806 10.5395L27.871 9.20613C27.871 9.20613 27.1091 8.88867 26.4107 8.88867C24.9504 8.88867 24.125 10.1585 24.125 12.5712C24.125 14.1585 24.252 15.2379 25.7758 15.2379C26.2837 15.2379 26.9821 15.0474 26.9821 15.0474Z" fill="#DCE5E5"/>
<path d="M7.55388 11.4285C7.55388 11.4285 8.12531 11.1746 8.95071 11.1746C9.39516 11.1746 9.77611 11.2381 9.77611 11.619C9.77611 11.873 9.71262 11.9365 9.71262 11.9365C9.71262 11.9365 9.33166 11.9365 9.14119 11.9365C8.06182 11.9365 6.85547 12.3809 6.85547 13.8412C6.85547 14.9841 7.61737 15.238 8.06182 15.238C8.95071 15.238 9.33166 14.6666 9.39516 14.6666L9.33166 15.1745H10.4745L10.9825 11.6825C10.9825 10.2222 9.71262 10.1587 9.20468 10.1587L7.55388 11.4285ZM10.1571 12.8888C10.1571 13.0793 9.39516 14.0952 8.63325 14.0952C8.2523 14.0952 8.12531 13.7777 8.12531 13.5873C8.12531 13.2698 8.31579 12.8253 9.26817 12.8253C9.45865 12.8888 10.1571 12.8888 10.1571 12.8888Z" fill="#DCE5E5"/>
<path d="M10.793 15.0471C10.793 15.0471 11.1739 15.1741 12.2533 15.1741C12.5707 15.1741 14.158 15.2376 14.158 13.5233C14.158 11.936 12.6342 12.2535 12.6342 11.6186C12.6342 11.3011 12.8882 11.1741 13.3327 11.1741C13.5231 11.1741 14.2215 11.2376 14.2215 11.2376L14.412 10.0948C14.412 10.0948 13.9676 9.96777 13.2057 9.96777C12.2533 9.96777 11.9358 10.3487 11.9358 11.6186C11.9358 13.0789 12.8882 12.9519 12.8882 13.5233C12.8882 13.9043 12.4438 13.9678 12.1263 13.9678" fill="#DCE5E5"/>
<path d="M37.266 10.7299C37.266 10.7299 36.7581 10.095 36.0597 10.095C34.9168 10.095 34.5359 11.4918 34.5359 13.1426C34.5359 14.1585 34.4089 15.2378 35.4882 15.2378C36.2501 15.2378 36.6946 14.7299 36.6946 14.7299L36.6311 15.1743H37.9009L38.8533 9.0791L37.266 10.7299ZM37.2025 12.3807C37.2025 13.0791 36.6311 13.968 35.9327 13.968C35.4882 13.968 35.2343 13.587 35.2343 12.9521C35.2343 11.9362 35.6787 11.3013 36.2501 11.3013C36.6946 11.3013 37.2025 11.6188 37.2025 12.3807Z" fill="#DCE5E5"/>
<path d="M2.34697 15.1109L3.10888 10.5394L3.23586 15.1109H4.12475L5.77555 10.5394L5.07713 15.1109H6.41047L7.42634 9.01562H5.83904L4.06126 12.7617L3.99777 9.01562H3.29936L1.14062 15.1109H2.34697Z" fill="#DCE5E5"/>
<path d="M20.6953 15.1111H22.0286C22.4096 13.0158 22.4731 11.3015 23.362 11.619C23.489 10.7936 23.6794 10.4762 23.8064 10.1587C23.8064 10.1587 23.7429 10.1587 23.5525 10.1587C22.981 10.1587 22.5366 10.9206 22.5366 10.9206L22.6636 10.2222" fill="#DCE5E5"/>
<path d="M28.1867 11.4285C28.1867 11.4285 28.7581 11.1746 29.5835 11.1746C30.028 11.1746 30.4089 11.2381 30.4089 11.619C30.4089 11.873 30.3454 11.9365 30.3454 11.9365C30.3454 11.9365 29.9645 11.9365 29.774 11.9365C28.6946 11.9365 27.4883 12.3809 27.4883 13.8412C27.4883 14.9841 28.2502 15.238 28.6946 15.238C29.5835 15.238 29.9645 14.6666 30.028 14.6666L29.9645 15.1745H31.1073L31.6153 11.6825C31.6153 10.2222 30.3454 10.1587 29.8375 10.1587L28.1867 11.4285ZM30.7899 12.8888C30.7899 13.0793 30.028 14.0952 29.2661 14.0952C28.8851 14.0952 28.7581 13.7777 28.7581 13.5873C28.7581 13.2698 28.9486 12.8253 29.901 12.8253C30.1549 12.8888 30.7899 12.8888 30.7899 12.8888Z" fill="#DCE5E5"/>
<path d="M31.3633 15.1111H32.6966C33.0776 13.0158 33.1411 11.3015 34.0299 11.619C34.1569 10.7936 34.3474 10.4762 34.4744 10.1587C34.4744 10.1587 34.4109 10.1587 34.2204 10.1587C33.649 10.1587 33.2046 10.9206 33.2046 10.9206L33.3315 10.2222" fill="#DCE5E5"/>
</svg>
