<svg width="10" height="20" viewBox="0 0 10 20" fill="none" xmlns="http://www.w3.org/2000/svg">
<path d="M7.07194 13.7119C7.07194 13.137 6.91658 12.6814 6.60588 12.3449C6.30192 12.0014 5.78183 11.6859 5.04559 11.3985C4.30935 11.1111 3.67443 10.8272 3.14083 10.5468C2.60723 10.2594 2.14792 9.9334 1.76292 9.56887C1.38467 9.19734 1.08747 8.76271 0.871327 8.26498C0.661938 7.76726 0.557244 7.1749 0.557244 6.48791C0.557244 5.30319 0.921986 4.33228 1.65147 3.57518C2.38095 2.81809 3.35022 2.37645 4.55927 2.25026V0.810537C4.55927 0.36289 4.92216 0 5.36981 0C5.81745 0 6.18034 0.36289 6.18034 0.810537V2.28181C7.37589 2.45706 8.31138 2.97581 8.98683 3.83807C9.4898 4.47492 9.80551 5.25366 9.93394 6.17429C10.0102 6.72127 9.55228 7.1714 9 7.1714H8.07194C7.51965 7.1714 7.09603 6.71664 6.97231 6.17839C6.88896 5.81576 6.75331 5.51935 6.56535 5.28917C6.23438 4.86856 5.78858 4.65825 5.22796 4.65825C4.6741 4.65825 4.24519 4.82299 3.94124 5.15247C3.63728 5.47494 3.48531 5.92359 3.48531 6.49842C3.48531 7.0312 3.63391 7.45882 3.9311 7.78128C4.2283 8.10375 4.77879 8.43323 5.58257 8.76972C6.39311 9.1062 7.05843 9.42517 7.57852 9.7266C8.09861 10.021 8.53766 10.3575 8.89564 10.7361C9.25363 11.1076 9.52719 11.5352 9.71631 12.0189C9.90544 12.4956 10 13.0529 10 13.6909C10 14.8826 9.64201 15.85 8.92604 16.5931C8.21006 17.3361 7.22391 17.7743 5.96758 17.9075V19.1945C5.96758 19.6394 5.60696 20 5.16211 20C4.71726 20 4.35664 19.6394 4.35664 19.1945V17.918C2.97197 17.7638 1.89801 17.2555 1.13475 16.3933C0.562027 15.7352 0.206098 14.9144 0.0669668 13.9308C-0.010389 13.384 0.447715 12.9338 1 12.9338H1.92806C2.48035 12.9338 2.9039 13.3895 3.03847 13.9252C3.13172 14.2963 3.28404 14.6073 3.49544 14.858C3.88045 15.2997 4.43094 15.5205 5.14691 15.5205C5.7413 15.5205 6.21074 15.3593 6.55522 15.0368C6.8997 14.7073 7.07194 14.2657 7.07194 13.7119Z" fill="white"/>
</svg>
