<svg width="24" height="24" viewBox="0 0 24 24" fill="none" xmlns="http://www.w3.org/2000/svg">
<path fill-rule="evenodd" clip-rule="evenodd" d="M14.9966 6.28711L11 7.99996V10.2838L14.9966 6.28711ZM9 12.2838V7.99996H5C3.9 7.99996 3 8.89996 3 9.99996V14C3 15.1 3.9 16 5 16H5.2838L9 12.2838ZM7.34783 21L9 19.3478V21H7.34783ZM11.9435 16.4043L21 7.34779V10.2695C21.3038 10.4449 21.5561 10.6971 21.7317 11.0009C21.9072 11.3046 21.9997 11.6492 22 12C21.9994 12.3504 21.9067 12.6946 21.7312 12.998C21.5557 13.3013 21.3035 13.5532 21 13.7285V21H19L18 19L11.9435 16.4043Z" fill="#001431"/>
<rect x="22.5195" y="1" width="2" height="29.0182" rx="1" transform="rotate(45 22.5195 1)" fill="#001431"/>
</svg>
