<svg width="45" height="15" viewBox="0 0 45 15" fill="none" xmlns="http://www.w3.org/2000/svg">
<path d="M18.3922 0.458984L16.1338 14.5131H19.7436L22.0007 0.458984H18.3922ZM29.2808 6.18385C28.0194 5.5609 27.246 5.14046 27.246 4.50331C27.2615 3.92401 27.9 3.33052 29.3259 3.33052C30.4987 3.30106 31.3607 3.57667 32.0146 3.8509L32.3422 3.99712L32.833 1.05664C32.12 0.781025 30.9895 0.477338 29.593 0.477338C26.0282 0.477338 23.518 2.33077 23.5025 4.98159C23.473 6.93775 25.2996 8.02325 26.6666 8.67443C28.063 9.34241 28.5384 9.7755 28.5384 10.369C28.5229 11.2802 27.4092 11.7007 26.37 11.7007C24.93 11.7007 24.1566 11.4841 22.9824 10.9764L22.507 10.7598L22.0022 13.8157C22.8502 14.1926 24.4097 14.5244 26.0284 14.5413C29.8168 14.5413 32.2819 12.716 32.3129 9.89087C32.3253 8.34112 31.3621 7.15414 29.2808 6.18385ZM42.0875 0.502478H39.2947C38.434 0.502478 37.7801 0.750024 37.4074 1.63317L32.0453 14.5131H35.8338L36.8772 11.7246H41.1157L41.6571 14.5244H44.9984L42.0875 0.502478ZM37.9278 8.9104C38.0009 8.9175 39.382 4.35833 39.382 4.35833L40.4816 8.9104C40.4816 8.9104 38.6409 8.9104 37.9278 8.9104ZM13.1174 0.458984L9.58066 10.0075L9.19538 8.12442C8.54143 5.95173 6.49119 3.59071 4.20312 2.41791L7.44174 14.4991H11.2612L16.9369 0.460526H13.1174V0.458984Z" fill="#2394BC"/>
<path d="M8.00722 2.27121C7.73161 1.19959 6.85263 0.476849 5.65885 0.461426H0.0576836L0 0.721464C4.3693 1.79864 8.03668 5.11313 9.22645 8.23082L8.00722 2.27121Z" fill="#EFC75E"/>
</svg>
