<svg width="18" height="18" viewBox="0 0 18 18" fill="none" xmlns="http://www.w3.org/2000/svg">
<path d="M14.7054 2.0025C13.084 0.70526 11.0692 -0.0010248 8.99279 1.11607e-06C6.54512 1.11607e-06 4.25896 0.942992 2.54977 2.6554C0.898032 4.31237 -0.00718912 6.50009 4.30018e-05 8.81397C9.92337e-05 10.5104 0.498143 12.1696 1.43241 13.5856L1.44004 13.5964C1.45129 13.6129 1.46294 13.6294 1.47459 13.6454C1.48624 13.6615 1.50071 13.6824 1.50392 13.6876L1.51276 13.7037C1.55816 13.7841 1.59312 13.8821 1.56218 13.9809L0.822095 16.6592C0.792487 16.7588 0.776273 16.8619 0.77388 16.9658C0.773345 17.2391 0.881196 17.5014 1.07378 17.6953C1.26637 17.8891 1.52798 17.9987 1.80124 18C1.94564 17.9952 2.08795 17.964 2.22111 17.908L4.93275 16.9292L4.96691 16.916C5.04067 16.885 5.11994 16.8693 5.19994 16.8698C5.2737 16.87 5.34682 16.8836 5.4157 16.91C5.48079 16.9353 6.07181 17.1615 6.69538 17.3358C7.21369 17.4805 8.29208 17.6975 9.13703 17.6975C11.5337 17.6975 13.7716 16.7693 15.4382 15.0834C17.0904 13.4104 18 11.1865 18 8.8188C18.0002 8.21101 17.9358 7.60493 17.8079 7.01076C17.3925 5.05728 16.2908 3.27817 14.7054 2.0025ZM5.14289 10.2857C4.8886 10.2857 4.64002 10.2103 4.42859 10.069C4.21715 9.92776 4.05236 9.72696 3.95505 9.49202C3.85773 9.25709 3.83227 8.99857 3.88188 8.74917C3.93149 8.49977 4.05394 8.27067 4.23375 8.09086C4.41356 7.91105 4.64265 7.7886 4.89206 7.73899C5.14146 7.68938 5.39997 7.71484 5.63491 7.81216C5.86984 7.90947 6.07064 8.07426 6.21192 8.2857C6.35319 8.49713 6.4286 8.74571 6.4286 9C6.4286 9.34099 6.29314 9.66802 6.05202 9.90914C5.8109 10.1503 5.48388 10.2857 5.14289 10.2857ZM9.00002 10.2857C8.74573 10.2857 8.49715 10.2103 8.28572 10.069C8.07428 9.92776 7.90949 9.72696 7.81218 9.49202C7.71487 9.25709 7.6894 8.99857 7.73901 8.74917C7.78862 8.49977 7.91108 8.27067 8.09089 8.09086C8.2707 7.91105 8.49979 7.7886 8.74919 7.73899C8.9986 7.68938 9.25711 7.71484 9.49204 7.81216C9.72697 7.90947 9.92778 8.07426 10.0691 8.2857C10.2103 8.49713 10.2857 8.74571 10.2857 9C10.2857 9.34099 10.1503 9.66802 9.90916 9.90914C9.66804 10.1503 9.34101 10.2857 9.00002 10.2857ZM12.8572 10.2857C12.6029 10.2857 12.3543 10.2103 12.1429 10.069C11.9314 9.92776 11.7666 9.72696 11.6693 9.49202C11.572 9.25709 11.5465 8.99857 11.5961 8.74917C11.6458 8.49977 11.7682 8.27067 11.948 8.09086C12.1278 7.91105 12.3569 7.7886 12.6063 7.73899C12.8557 7.68938 13.1142 7.71484 13.3492 7.81216C13.5841 7.90947 13.7849 8.07426 13.9262 8.2857C14.0675 8.49713 14.1429 8.74571 14.1429 9C14.1429 9.34099 14.0074 9.66802 13.7663 9.90914C13.5252 10.1503 13.1981 10.2857 12.8572 10.2857Z" fill="#CCD0E3"/>
</svg>
