<svg width="16" height="19" viewBox="0 0 16 19" fill="none" xmlns="http://www.w3.org/2000/svg">
<path d="M5.09091 0C4.28727 0 3.63636 0.6802 3.63636 1.52V13.68C3.63636 14.5198 4.28727 15.2 5.09091 15.2H14.5455C15.3491 15.2 16 14.5198 16 13.68V4.94C16 4.7386 15.9237 4.54554 15.7869 4.40266L11.7869 0.222656C11.6502 0.0797762 11.4655 0 11.2727 0H5.09091ZM10.9091 1.44727L14.6151 5.32H11.6364C11.2349 5.32 10.9091 4.97952 10.9091 4.56V1.44727ZM1.45455 3.8C0.650909 3.8 0 4.4802 0 5.32V17.48C0 18.3198 0.650909 19 1.45455 19H10.9091C11.7127 19 12.3636 18.3198 12.3636 17.48V16.72H5.09091C3.48655 16.72 2.18182 15.3566 2.18182 13.68V3.8H1.45455Z" fill="white"/>
</svg>
