<svg width="20" height="20" viewBox="0 0 20 20" fill="none" xmlns="http://www.w3.org/2000/svg">
<path fill-rule="evenodd" clip-rule="evenodd" d="M10 20C15.5228 20 20 15.5228 20 10C20 4.47715 15.5228 0 10 0C4.47715 0 0 4.47715 0 10C0 15.5228 4.47715 20 10 20ZM11.9338 11.6463C12.5733 11.1295 13.2324 11.4435 13.8801 11.9603L14.2693 12.2728C14.9186 12.7895 15.3144 13.3154 14.6766 13.8306L14.3315 14.1126C14.0894 14.3459 13.3142 14.9861 12.0336 14.9998C10.4929 15.0151 8.86389 14.1187 7.20219 12.3337C5.53886 10.5503 4.81105 8.92377 5.04166 7.50461C5.23301 6.32172 6.02134 5.69826 6.30429 5.50772L6.64938 5.22572C7.28724 4.71049 7.79098 5.1495 8.2522 5.81716L8.52861 6.22264C8.98819 6.89335 9.22862 7.54424 8.5924 8.061L8.20805 8.37349C8.17789 8.3975 8.13724 8.4228 8.09115 8.45147C7.70727 8.69033 6.94661 9.16362 8.74123 11.0853C10.5326 13.0076 11.1406 12.3765 11.4497 12.0556C11.4874 12.0165 11.5206 11.9819 11.5511 11.9572L11.9338 11.6463Z" fill="#CCD0E3"/>
</svg>
