<svg width="20" height="20" viewBox="0 0 20 20" fill="none" xmlns="http://www.w3.org/2000/svg">
<path d="M1.66667 0C1.22464 0 0.800716 0.175595 0.488155 0.488155C0.175595 0.800716 0 1.22464 0 1.66667V6.66667C0.000542317 7.01186 0.108254 7.34837 0.308258 7.62971C0.508262 7.91106 0.790691 8.12336 1.11654 8.2373C1.29321 8.30003 1.47919 8.33249 1.66667 8.33333C1.67263 8.33337 1.6786 8.33337 1.68457 8.33333L11.6667 10L1.68457 11.6683C1.67861 11.6677 1.67264 11.6672 1.66667 11.6667C1.47865 11.6673 1.29209 11.6998 1.11491 11.7627C0.789367 11.8769 0.50729 12.0893 0.307594 12.3707C0.107898 12.652 0.000423941 12.9883 0 13.3333V18.3333C0 18.7754 0.175595 19.1993 0.488155 19.5118C0.800716 19.8244 1.22464 20 1.66667 20C1.95684 19.9995 2.24185 19.9231 2.49349 19.7786H2.49512L19.4922 10.7682L19.4938 10.765C19.6438 10.701 19.7717 10.5944 19.8616 10.4584C19.9516 10.3224 19.9997 10.163 20 10C20.0002 9.83622 19.9522 9.676 19.8619 9.53937C19.7715 9.40274 19.643 9.29575 19.4922 9.23177L2.49512 0.221354C2.243 0.0765757 1.9574 0.000265201 1.66667 0Z" fill="white"/>
</svg>
